<?xml version="1.0" encoding="UTF-8" standalone="no" ?>
<!DOCTYPE svg PUBLIC "-//W3C//DTD SVG 1.1//EN" "http://www.w3.org/Graphics/SVG/1.1/DTD/svg11.dtd">
<svg xmlns="http://www.w3.org/2000/svg" xmlns:xlink="http://www.w3.org/1999/xlink" version="1.1" width="400" height="400" viewBox="0 0 400 400" xml:space="preserve">
<desc>Created with Fabric.js 3.6.2</desc>
<defs>
</defs>
<g transform="matrix(8.33 0 0 8.33 200 200)" id="Layer_2"  >
<path style="stroke: none; stroke-width: 1; stroke-dasharray: none; stroke-linecap: butt; stroke-dashoffset: 0; stroke-linejoin: miter; stroke-miterlimit: 4; fill: rgb(0,173,181); fill-rule: nonzero; opacity: 1;"  transform=" translate(-12, -12)" d="M 21 5 H 16.62 l -0.72 -1.45 A 1 1 0 0 0 15 3 H 9 a 1 1 0 0 0 -0.89 0.55 L 7.38 5 H 6 V 4 H 4 V 5 H 3 A 1 1 0 0 0 2 6 V 20 a 1 1 0 0 0 1 1 H 21 a 1 1 0 0 0 1 -1 V 6 A 1 1 0 0 0 21 5 Z M 20 19 H 4 V 7 H 8 a 1 1 0 0 0 0.89 -0.55 L 9.62 5 h 4.76 l 0.72 1.45 A 1 1 0 0 0 16 7 h 4 Z" stroke-linecap="round" />
</g>
<g transform="matrix(8.33 0 0 8.33 200 208.33)" id="Layer_2"  >
<path style="stroke: none; stroke-width: 1; stroke-dasharray: none; stroke-linecap: butt; stroke-dashoffset: 0; stroke-linejoin: miter; stroke-miterlimit: 4; fill: rgb(0,0,0); fill-rule: nonzero; opacity: 1;"  transform=" translate(-12, -13)" d="M 12 8 a 5 5 0 1 0 5 5 A 5 5 0 0 0 12 8 Z m 0 8 a 3 3 0 1 1 3 -3 A 3 3 0 0 1 12 16 Z" stroke-linecap="round" />
</g>
<g transform="matrix(8.33 0 0 8.33 250 175)" id="Layer_2"  >
<rect style="stroke: none; stroke-width: 1; stroke-dasharray: none; stroke-linecap: butt; stroke-dashoffset: 0; stroke-linejoin: miter; stroke-miterlimit: 4; fill: rgb(0,0,0); fill-rule: nonzero; opacity: 1;"  x="-1" y="-1" rx="0" ry="0" width="2" height="2" />
</g>
</svg>